<?xml version="1.0" encoding="UTF-8"?>
<svg version="1.1" xmlns="http://www.w3.org/2000/svg" width="500" height="500">
<path d="M0 0 C1.28616211 0.00563965 2.57232422 0.0112793 3.89746094 0.01708984 C12.90146118 0.13235018 21.09235239 0.67626128 29.75 3.3125 C30.40790527 3.50585938 31.06581055 3.69921875 31.74365234 3.8984375 C47.06181614 8.48857398 60.70381275 15.75145913 72.75 26.3125 C73.5440625 26.951875 74.338125 27.59125 75.15625 28.25 C96.10995101 45.75562363 108.69882505 72.88874712 111.50390625 99.75390625 C113.61504873 130.28169676 105.29776439 159.73891969 85.38671875 183.30859375 C84.51660156 184.29988281 83.64648438 185.29117188 82.75 186.3125 C81.67685547 187.53646484 81.67685547 187.53646484 80.58203125 188.78515625 C60.38681075 210.26862721 32.70851268 220.50678005 3.80859375 222.59765625 C-28.17903693 223.39130836 -56.47451773 210.58338131 -79.58984375 189.03125 C-102.64239661 165.47093166 -110.85336177 135.94612074 -110.52734375 103.65625 C-110.30003174 94.78995081 -108.94665173 86.73927835 -106.25 78.3125 C-106.04101074 77.63477539 -105.83202148 76.95705078 -105.61669922 76.25878906 C-96.9132764 48.70772925 -76.80264265 25.65050379 -51.453125 12.09936523 C-35.10312504 3.68870028 -18.3649815 -0.08406675 0 0 Z M-47.25 65.3125 C-47.87390625 65.90289062 -48.4978125 66.49328125 -49.140625 67.1015625 C-61.19041809 79.42274733 -65.76345965 96.69498078 -65.67236328 113.40087891 C-65.45831006 121.25089597 -64.17693804 127.9722165 -61.25 135.3125 C-60.84910156 136.323125 -60.44820312 137.33375 -60.03515625 138.375 C-53.0423653 153.94156071 -40.843131 165.1318045 -25.4375 172.1875 C-7.16308068 179.11254311 11.00565228 178.54446751 29.05859375 170.9140625 C46.08296243 162.53472137 56.87507045 148.78290922 63.75 131.3125 C69.1865172 115.27477426 67.08253157 97.29283263 60.19921875 82.05859375 C57.78707175 77.48786777 54.91540647 73.38840541 51.75 69.3125 C51.28980469 68.68730469 50.82960938 68.06210938 50.35546875 67.41796875 C41.1664581 55.68675342 25.41139949 47.28145598 10.75 45.3125 C-11.75087421 43.50005237 -31.04033388 48.93039062 -47.25 65.3125 Z " fill="#FFFFFF" transform="translate(202.25,138.6875)"/>
<path d="M0 0 C14.85 0 29.7 0 45 0 C45 73.26 45 146.52 45 222 C30.15 222 15.3 222 0 222 C0 148.74 0 75.48 0 0 Z " fill="#FFFFFF" transform="translate(347,139)"/>
</svg>
